<svg width="293" height="583" viewBox="0 0 293 583" fill="none" xmlns="http://www.w3.org/2000/svg">
<path opacity="0.5" d="M292.28 579.91L260.256 547.886L292.28 515.862V513.103L258.937 546.447L196.088 483.598L258.937 420.75L292.28 454.093V451.334L260.256 419.31L292.28 387.286V384.528L258.937 417.871L196.088 355.022L258.817 292.294L292.28 325.757V322.998L260.136 290.855L292.28 258.711V255.952L258.817 289.415L196.088 226.687L258.937 163.838L292.28 197.181V194.423L260.256 162.399L292.28 130.375V128.336L258.937 161.679L196.088 98.8306L258.937 35.982L292.28 69.3253V66.5667L260.256 34.7826L292.28 2.75862V0L1.66558 290.615L0.945894 291.334L292.28 582.669V579.91ZM257.498 291.334L194.769 354.063L132.04 291.334L194.769 228.606L257.498 291.334ZM194.769 100.27L257.498 163.118L194.649 225.967L131.8 163.118L194.769 100.27ZM130.601 164.438L193.45 227.286L130.721 290.015L67.8725 227.166L130.601 164.438ZM3.70457 291.334L66.5531 228.486L129.402 291.334L66.5531 354.183L3.70457 291.334ZM67.8725 355.502L130.721 292.654L193.45 355.382L130.601 418.231L67.8725 355.502ZM131.92 419.55L194.769 356.702L257.618 419.55L194.769 482.399L131.92 419.55Z" fill="white"/>
</svg>
