<svg width="500" height="277" viewBox="0 0 500 277" fill="none" xmlns="http://www.w3.org/2000/svg">
<path d="M494.962 172.354L494.723 172.594L489.565 177.631L466.896 200.3L420 153.403L418.321 151.724L420 150.045L422.039 148.006C422.159 147.886 422.159 147.646 422.039 147.406C421.919 147.286 421.559 147.286 421.439 147.406L419.4 149.445L418.081 150.765V150.285C418.081 150.045 417.961 149.925 417.721 149.925C417.601 149.925 417.481 149.925 417.481 150.045C417.361 150.165 417.361 150.285 417.361 150.405V150.885L416.042 149.565L412.684 146.207C412.564 146.087 412.204 146.087 412.084 146.207C411.964 146.327 411.964 146.567 412.084 146.807L415.442 150.165L417.121 151.844L415.442 153.523C415.322 153.643 415.322 154.003 415.442 154.123C415.562 154.243 415.922 154.243 416.042 154.123L417.361 152.804V153.283C417.361 153.523 417.481 153.763 417.721 153.763C417.961 153.763 418.081 153.523 418.081 153.283V152.804L419.4 154.123L421.319 156.042C420.24 155.442 419.28 155.562 418.561 156.402C417.361 157.601 417.721 159.16 419.64 161.079C421.559 162.999 423.118 163.358 424.318 162.159C425.157 161.319 425.157 160.36 424.678 159.4L466.417 201.139L460.78 206.777L454.543 213.014C444.827 209.295 435.232 205.457 425.637 201.619L412.324 188.306L405.487 181.469L398.891 174.753L398.771 174.633L398.171 174.033C398.531 173.433 398.531 172.714 398.171 172.114L398.891 171.274C399.01 171.154 399.01 170.915 398.891 170.675C398.771 170.555 398.411 170.555 398.291 170.675L397.571 171.394C396.971 171.034 396.252 171.034 395.652 171.394L394.932 170.675L391.934 167.796L391.574 167.436L357.991 133.853C357.871 133.733 357.631 133.733 357.391 133.853C357.271 133.973 357.271 134.213 357.391 134.453L390.974 168.036L391.454 168.516L394.453 171.394L395.172 172.234C394.812 172.834 394.812 173.553 395.172 174.153L394.453 174.873L392.414 176.912C392.294 177.031 392.294 177.271 392.414 177.511C392.534 177.631 392.894 177.631 393.013 177.511L395.052 175.472L395.892 174.753C396.492 175.112 397.211 175.112 397.811 174.753L398.411 175.352L398.531 175.472L405.127 182.189L411.964 189.025L423.838 200.9C419.04 198.981 414.363 196.942 409.685 195.022L412.684 192.024C412.804 191.904 412.804 191.664 412.684 191.424C412.564 191.304 412.324 191.304 412.084 191.424L408.845 194.663C393.013 188.186 377.301 181.469 361.709 174.633L359.31 173.553C350.075 169.475 340.96 165.277 331.724 161.079L339.88 152.924C340 152.804 340 152.564 339.88 152.324C339.76 152.204 339.52 152.204 339.28 152.324L331.004 160.72C324.048 157.601 317.211 154.363 310.255 151.124C310.255 151.005 310.135 151.005 310.135 151.005L308.336 150.285C280.51 137.091 252.924 123.298 225.697 108.906L197.031 80.2399L195.472 78.6807L193.673 76.8816L192.953 76.1619C193.313 75.5622 193.313 74.8426 192.953 74.2429L193.433 73.1634L195.472 71.1244C195.592 71.0045 195.592 70.7646 195.472 70.5247C195.352 70.4048 195.112 70.4048 194.873 70.5247L192.834 72.5637L192.114 73.2834C191.514 72.9235 190.795 72.9235 190.195 73.2834L189.475 72.5637L188.516 71.6042L186.117 69.2054L183.718 66.8066L188.756 61.7691C188.876 61.6492 188.876 61.4093 188.756 61.1694L183.718 56.1319L185.637 54.093C185.757 53.973 185.757 53.6132 185.637 53.4933C185.517 53.3733 185.157 53.3733 185.037 53.4933L183.118 55.4123L178.081 50.3748L174.003 46.2968L171.364 43.6582L131.064 3.5982L128.426 0.95952L127.466 0H126.267L127.466 1.1994L126.747 1.91904L124.828 0H123.628L126.147 2.51874L125.427 3.23838L122.189 0H120.989L124.828 3.83808L122.789 5.997L120.39 3.5982L116.792 0H115.592L119.67 4.07796L122.309 6.71664L124.948 9.35532L126.387 10.7946L133.223 17.6312L140.06 24.4678L162.489 46.8965L165.127 49.5352L167.526 51.934L162.729 56.7316L106.117 0H104.918L162.609 57.6912L166.567 61.7691L171.604 66.8066L171.244 67.1664L163.568 74.8426C122.669 51.3343 82.3688 26.2669 42.7886 0H41.4692C54.5427 8.75562 67.7361 17.3913 80.9295 25.7871L77.3313 31.5442C61.1394 21.2294 45.0674 10.6747 29.1154 0H27.6761C43.988 11.0345 60.5397 21.8291 77.0914 32.3838L80.3298 34.4228C104.198 49.5352 128.426 64.048 152.774 78.081C152.774 78.081 152.774 78.081 152.774 78.2009L156.132 80.1199L157.451 80.8396L147.016 91.2744C97.7211 62.8486 49.3852 32.3838 2.24882 0H0.8096C48.1859 32.6237 96.7616 63.3283 146.537 91.994L137.301 101.229C137.181 101.349 137.181 101.589 137.301 101.829C137.421 102.069 137.661 101.949 137.901 101.829L147.256 92.4738C164.888 102.669 182.759 112.504 200.63 122.099C200.63 122.219 200.75 122.219 200.75 122.219L207.346 125.817C208.306 126.417 209.385 126.897 210.345 127.376L208.786 130.375V130.495V130.615C208.786 130.735 208.786 130.735 208.906 130.735L249.685 151.844H249.805C249.925 151.844 250.165 151.844 250.285 151.604L251.844 148.486C252.804 148.966 253.643 149.445 254.483 149.805L252.923 152.924V153.043V153.163C252.923 153.163 252.924 153.163 253.043 153.283C253.043 153.403 253.043 153.403 253.163 153.403L295.622 174.153H295.742C295.862 174.153 295.862 174.153 295.862 174.153C295.862 174.153 295.862 174.153 295.982 174.033C295.982 174.033 296.102 174.033 296.102 173.913L297.421 170.675C298.381 171.154 299.22 171.514 300.18 171.994L298.98 174.992V175.112C298.98 175.232 298.98 175.232 298.98 175.232C298.98 175.232 298.98 175.232 298.98 175.352C298.98 175.352 298.98 175.352 299.1 175.472C299.22 175.592 299.1 175.472 299.1 175.592L310.015 180.63L303.778 186.747C303.658 186.747 303.418 186.747 303.298 186.867C303.178 186.987 303.178 187.106 303.298 187.226L287.706 202.819C287.586 202.939 287.586 203.178 287.706 203.418C287.826 203.538 288.066 203.538 288.306 203.418L303.778 187.946L337.361 221.529C337.481 221.649 337.841 221.649 337.961 221.529C338.081 221.409 338.081 221.049 337.961 220.93L304.378 187.346L310.735 180.99L339.52 194.423C339.64 194.423 339.64 194.423 339.76 194.423C339.76 194.423 339.76 194.423 339.88 194.423L340 194.303C340 194.303 340.12 194.303 340.12 194.183L341.559 191.064C342.639 191.544 343.718 192.024 344.797 192.504C374.783 205.817 405.367 218.531 436.072 230.525L406.087 260.63C405.967 260.75 405.967 260.99 406.087 261.229C406.207 261.349 406.567 261.349 406.687 261.229L437.031 230.885C446.267 234.483 455.502 238.081 464.858 241.559L466.057 242.759L483.928 260.63L484.648 261.349C484.288 261.949 484.288 262.669 484.648 263.268L483.928 264.108C483.808 264.228 483.808 264.468 483.928 264.708C484.048 264.828 484.408 264.828 484.528 264.708L485.247 263.988C485.847 264.348 486.567 264.348 487.166 263.988L487.886 264.708L491.244 268.066L500 276.822V275.622L491.844 267.466L488.486 264.108L487.766 263.388C488.126 262.789 488.126 262.069 487.766 261.469L488.486 260.75L500 249.235V248.036L487.886 260.15L487.046 260.99C486.447 260.63 485.727 260.63 485.127 260.99L484.408 260.15L466.537 242.279C470.615 243.838 474.693 245.277 478.771 246.837L483.088 248.396C484.048 248.756 485.007 249.115 485.967 249.475C486.207 249.595 486.447 249.475 486.447 249.235L494.243 227.886C494.243 227.766 494.243 227.646 494.243 227.526C494.243 227.406 494.123 227.406 494.003 227.286L486.926 224.648C479.01 221.769 470.974 218.771 462.938 215.652L472.174 206.417L490.884 225.127C491.004 225.247 491.364 225.247 491.484 225.127C491.604 225.007 491.604 224.648 491.484 224.528L472.654 205.817L495.322 183.148L499.88 178.591V176.432L495.562 172.114L497.721 169.955L499.88 172.114V170.915L498.321 169.355L499.88 167.796V166.717L497.481 169.115L494.962 172.354ZM423.598 161.439C422.879 162.159 421.679 161.799 420.24 160.24C418.681 158.681 418.321 157.601 419.04 156.882C419.76 156.162 420.96 156.522 422.399 158.081C423.238 158.921 423.718 159.64 423.838 160.12C424.078 160.6 423.958 161.079 423.598 161.439ZM395.532 173.313C395.412 173.073 395.412 172.834 395.532 172.594L395.892 172.954L395.532 173.313ZM396.012 173.913L396.372 173.553L396.732 173.913C396.492 174.033 396.252 174.033 396.012 173.913ZM396.372 172.474L396.012 172.114C396.252 171.994 396.492 171.994 396.732 172.114L396.372 172.474ZM397.331 173.313L396.971 172.954L397.331 172.594C397.451 172.834 397.451 173.073 397.331 173.313ZM485.967 263.748L486.327 263.388L486.687 263.748C486.447 263.868 486.087 263.868 485.967 263.748ZM487.166 262.549C487.286 262.789 487.286 263.028 487.166 263.268L486.807 262.909L487.166 262.549ZM486.687 261.949L486.327 262.309L485.967 261.949C486.087 261.829 486.447 261.829 486.687 261.949ZM485.727 262.909L485.367 263.268C485.247 263.028 485.247 262.789 485.367 262.549L485.727 262.909ZM461.859 207.616V215.052L460.78 216.132V208.696L461.859 207.616ZM460.3 218.891L461.379 217.811V222.849C461.019 222.729 460.66 222.609 460.3 222.489V218.891ZM460.06 209.535V216.972L458.98 218.051V210.615L460.06 209.535ZM458.381 220.81L459.46 219.73V222.129C459.1 222.009 458.741 221.889 458.381 221.649V220.81ZM457.061 212.414L458.141 211.334V218.771L457.061 219.85V212.414ZM455.142 214.333L456.222 213.253V220.69L455.862 221.049L455.142 220.33V214.333ZM453.223 216.252L454.303 215.172V219.61L453.223 218.531V216.252ZM453.223 214.093L452.743 214.573V213.853C452.863 213.973 452.983 213.973 453.223 214.093ZM452.384 217.091V217.691L452.024 217.331L452.384 217.091ZM450.824 213.133C451.184 213.253 451.544 213.373 451.904 213.613V215.412L451.064 216.252L450.824 216.012V213.133ZM448.905 212.414C449.265 212.534 449.625 212.654 449.985 212.894V215.292L448.905 214.213V212.414ZM446.986 211.694C447.346 211.814 447.706 211.934 448.066 212.174V213.493L446.986 212.414V211.694ZM446.147 211.334V211.454L445.907 211.214C446.027 211.214 446.147 211.334 446.147 211.334ZM445.667 211.094C445.547 211.094 445.427 211.094 445.427 211.214L445.187 211.454V210.855C445.307 210.975 445.427 210.975 445.667 211.094ZM444.228 210.615V212.294L443.148 213.373V210.135C443.508 210.255 443.868 210.495 444.228 210.615ZM441.349 209.415C441.709 209.535 442.069 209.655 442.429 209.895V214.213L441.469 215.172C441.469 215.172 441.349 215.172 441.349 215.052V209.415ZM439.43 208.696C439.79 208.816 440.15 208.936 440.51 209.175V214.813C440.15 214.693 439.79 214.573 439.43 214.333V208.696ZM437.511 207.976C437.871 208.096 438.231 208.216 438.591 208.456V214.093C438.231 213.973 437.991 213.853 437.631 213.733L437.511 213.613V207.976ZM435.592 207.136C435.952 207.256 436.312 207.376 436.672 207.616V212.774L435.592 211.694V207.136ZM435.592 212.774C435.712 212.894 435.592 212.774 435.592 212.774V212.774ZM433.793 206.417C434.153 206.537 434.513 206.657 434.873 206.897V210.855L433.793 209.775V206.417ZM433.793 210.855L434.873 211.934V212.414C434.513 212.294 434.153 212.174 433.793 211.934V210.855ZM431.874 205.697C432.234 205.817 432.594 205.937 432.953 206.177V208.936L431.874 207.856V205.697ZM431.874 209.055L432.953 210.135V211.814C432.594 211.694 432.234 211.454 431.874 211.334V209.055ZM429.955 204.978C430.315 205.097 430.675 205.337 431.034 205.457V207.136L429.955 206.057V204.978ZM431.034 208.216V210.975C430.675 210.855 430.315 210.735 429.955 210.615V207.136L431.034 208.216ZM429.115 204.618V205.097L428.276 204.258C428.516 204.378 428.876 204.498 429.115 204.618ZM428.036 205.217L429.115 206.297V210.255C428.756 210.135 428.396 210.015 428.036 209.775V205.217ZM426.117 203.418C426.237 203.418 426.237 203.418 426.237 203.538L427.196 204.378V209.535C426.837 209.415 426.477 209.295 426.117 209.055V203.418ZM424.318 202.579C424.678 202.699 425.037 202.819 425.397 203.058V208.696C425.037 208.576 424.678 208.456 424.318 208.216V202.579ZM422.399 201.859C422.759 201.979 423.118 202.099 423.478 202.339V207.976C423.118 207.856 422.759 207.736 422.399 207.496V201.859ZM420.48 201.139C420.84 201.259 421.199 201.499 421.559 201.619V207.256C421.199 207.136 420.84 207.016 420.48 206.777V201.139ZM419.64 200.78V206.537C419.28 206.417 418.92 206.177 418.561 206.057V200.42C418.92 200.42 419.28 200.66 419.64 200.78ZM416.642 199.58C417.001 199.7 417.361 199.82 417.721 200.06V205.697C417.361 205.577 417.001 205.457 416.642 205.217V199.58ZM414.842 198.741C415.202 198.861 415.562 198.981 415.922 199.22V204.858C415.562 204.738 415.202 204.618 414.842 204.378V198.741ZM412.923 198.021C413.283 198.141 413.643 198.381 414.003 198.501V204.138C413.643 204.018 413.283 203.898 412.923 203.658V198.021ZM412.084 197.661V203.298C411.724 203.178 411.364 202.939 411.004 202.819V197.181C411.364 197.421 411.724 197.541 412.084 197.661ZM409.085 196.462C409.445 196.582 409.805 196.702 410.165 196.942V202.579C409.805 202.459 409.445 202.339 409.085 202.099V196.462ZM408.246 196.102V201.739C407.886 201.619 407.526 201.499 407.166 201.259V195.622C407.526 195.862 407.886 195.982 408.246 196.102ZM405.367 194.903C405.727 195.022 406.087 195.262 406.447 195.382V201.02C406.087 200.9 405.727 200.78 405.367 200.54V194.903ZM403.448 194.063C403.808 194.183 404.168 194.423 404.528 194.543V200.18C404.168 200.06 403.808 199.94 403.448 199.7V194.063ZM401.529 193.343C401.889 193.463 402.249 193.703 402.609 193.823V199.46C402.249 199.34 401.889 199.22 401.529 198.98V193.343ZM399.61 192.504C399.97 192.624 400.33 192.864 400.69 192.984V198.741C400.33 198.621 399.97 198.501 399.61 198.261V192.504ZM397.691 191.784C398.051 191.904 398.411 192.144 398.771 192.264V198.021C398.411 197.901 398.051 197.661 397.691 197.541V191.784ZM395.892 190.945C396.252 191.064 396.612 191.304 396.971 191.424V197.181C396.612 197.061 396.252 196.822 395.892 196.702V190.945ZM393.973 190.105C394.333 190.225 394.693 190.465 395.052 190.585V196.342C394.693 196.222 394.333 195.982 393.973 195.862V190.105ZM392.054 189.385C392.414 189.505 392.774 189.625 393.133 189.865V195.622C392.774 195.502 392.414 195.262 392.054 195.142V189.385ZM390.135 188.546C390.495 188.666 390.855 188.786 391.214 189.025V194.783C390.855 194.663 390.495 194.423 390.135 194.303V188.546ZM389.295 188.186V193.823C388.936 193.703 388.576 193.463 388.216 193.343V187.706C388.576 187.946 388.936 188.066 389.295 188.186ZM386.417 186.986C386.777 187.106 387.136 187.346 387.496 187.466V193.103C387.136 192.984 386.777 192.864 386.417 192.624V186.986ZM385.577 186.627V192.264C385.217 192.144 384.858 191.904 384.498 191.784V186.147C384.858 186.387 385.217 186.507 385.577 186.627ZM382.579 185.427C382.938 185.547 383.298 185.787 383.658 185.907V191.544C383.298 191.424 382.938 191.184 382.579 191.064V185.427ZM380.66 184.588C381.019 184.708 381.379 184.948 381.739 185.067V190.825C381.379 190.705 381.019 190.465 380.66 190.345V184.588ZM378.741 183.748C379.1 183.868 379.46 184.108 379.82 184.228V189.985C379.46 189.865 379.1 189.625 378.741 189.505V183.748ZM376.941 182.909C377.301 183.028 377.661 183.268 378.021 183.388V189.145C377.661 189.025 377.301 188.786 376.941 188.666V182.909ZM375.022 182.069C375.382 182.189 375.742 182.429 376.102 182.549V188.306C375.742 188.186 375.382 187.946 375.022 187.826V182.069ZM374.183 181.709V187.466C373.823 187.346 373.463 187.106 373.103 186.986V181.229C373.463 181.349 373.823 181.589 374.183 181.709ZM371.184 180.39C371.544 180.51 371.904 180.75 372.264 180.87V186.627C371.904 186.507 371.544 186.387 371.184 186.147V180.39ZM369.265 179.55C369.625 179.67 369.985 179.91 370.345 180.03V185.787C369.985 185.667 369.625 185.427 369.265 185.307V179.55ZM367.466 178.831C367.826 178.951 368.186 179.07 368.546 179.31V185.067C368.186 184.948 367.826 184.828 367.466 184.588V178.831ZM365.547 177.991C365.907 178.111 366.267 178.351 366.627 178.471V184.228C366.267 184.108 365.907 183.868 365.547 183.748V177.991ZM363.628 177.151C363.988 177.271 364.348 177.511 364.708 177.631V183.388C364.348 183.268 363.988 183.028 363.628 182.909V177.151ZM361.709 176.312C362.069 176.432 362.429 176.552 362.788 176.792V182.549C362.429 182.429 362.069 182.189 361.709 182.069V176.312ZM353.793 171.874L351.034 178.111L348.396 177.031L349.715 173.913L351.034 170.795L353.793 171.874ZM330.884 161.559C337.361 164.558 343.838 167.436 350.315 170.315L349.115 173.193L328.965 163.838L328.726 163.718L330.884 161.559ZM325.247 165.997L313.493 177.751C310.735 176.432 307.976 175.112 305.217 173.793L325.247 165.997ZM304.138 173.313C303.178 172.834 302.339 172.474 301.379 171.994L307.136 158.201L308.456 155.082L327.286 163.838L326.687 164.438L304.138 173.313ZM327.166 165.277L328.606 164.678L337.481 188.666C329.805 185.187 322.129 181.709 314.333 178.111L327.166 165.277ZM309.895 151.724C316.612 154.963 323.328 158.081 330.045 161.199L327.886 163.358L308.696 154.483L309.895 151.724ZM307.736 150.765C308.216 151.005 308.696 151.244 309.175 151.484L307.856 154.483L306.537 157.601L303.778 156.402L306.417 150.165L307.736 150.765ZM305.697 149.805L304.498 152.564L284.468 142.729L264.198 132.774L265.637 130.015C278.831 136.852 292.264 143.448 305.697 149.805ZM258.801 141.889L256.522 139.73L258.681 135.292L261.319 136.612L258.801 141.889ZM263.838 133.613L283.268 143.088L265.757 148.846L259.4 142.489L263.838 133.613ZM258.92 143.328L264.798 149.205L258.561 151.244C257.601 150.765 256.642 150.285 255.682 149.805L258.92 143.328ZM265.517 149.805L275.112 159.4C269.955 156.882 264.798 154.363 259.64 151.724L265.517 149.805ZM266.357 149.565L283.988 143.688L293.223 168.156C287.946 165.637 282.669 162.999 277.271 160.48L266.357 149.565ZM264.798 129.895L261.799 135.892L259.16 134.573L260.48 131.814C260.6 131.814 260.72 131.694 260.84 131.574C260.96 131.454 260.84 131.334 260.84 131.214L262.279 128.456L264.798 129.895ZM228.696 112.984C228.816 113.103 229.055 113.103 229.295 112.984C229.415 112.864 229.415 112.624 229.295 112.384L227.376 110.465C238.651 116.342 250.045 122.219 261.439 127.976L260 130.735L220.42 110.225L221.859 107.466C222.939 108.066 223.898 108.546 224.977 109.025L228.696 112.984ZM218.381 114.183C218.381 114.183 218.501 114.183 218.501 114.063L220.06 111.064L235.652 119.1C235.532 119.1 235.532 119.1 235.412 119.22C235.292 119.34 235.292 119.58 235.412 119.82L237.091 121.499L214.423 128.576C213.463 128.096 212.504 127.616 211.544 127.016L218.381 114.183ZM218.021 113.343L215.382 112.024L218.501 106.027L221.139 107.346L218.021 113.343ZM236.372 119.58L239.13 121.019L238.051 121.379L236.372 119.58ZM237.811 122.219L241.169 125.577L247.646 145.847C236.852 140.45 226.177 134.813 215.502 129.175L237.811 122.219ZM238.771 121.979L239.97 121.619L240.69 123.898L238.771 121.979ZM192.114 74.4828C192.234 74.7226 192.234 74.9625 192.114 75.2024L191.754 74.8426L192.114 74.4828ZM191.514 74.003L191.154 74.3628L190.795 74.003C191.034 73.8831 191.274 73.8831 191.514 74.003ZM191.154 75.4423L191.514 75.8021C191.274 75.922 191.034 75.922 190.795 75.8021L191.154 75.4423ZM190.195 74.4828L190.555 74.8426L190.195 75.2024C190.075 75.0825 190.075 74.7226 190.195 74.4828ZM185.397 69.8051L187.796 72.2039L188.756 73.1634L189.475 73.8831C189.115 74.4828 189.115 75.2024 189.475 75.8021L188.636 76.6417C188.516 76.7616 188.516 77.0015 188.636 77.2414C188.756 77.3613 188.995 77.3613 189.235 77.2414L190.075 76.4018C190.675 76.7616 191.394 76.7616 191.994 76.4018L192.714 77.2414L193.553 78.081L193.073 78.5607L193.793 79.2804L194.273 78.8006L194.513 79.0405L196.072 80.5997L222.938 107.466C221.499 106.747 219.94 105.907 218.501 105.187C218.381 105.187 218.381 105.187 218.261 105.187L211.784 101.709C205.187 98.1109 198.591 94.5127 191.994 90.9145C192.594 89.955 192.594 88.9955 191.754 88.036L191.034 88.6357C191.274 88.9955 191.514 89.2354 191.514 89.7151C191.514 89.955 191.394 90.3148 191.274 90.5547C190.315 90.075 189.355 89.4753 188.516 88.9955C188.516 88.5157 188.516 88.036 188.636 87.4363C188.756 85.7571 188.636 84.5577 188.036 83.958L185.037 86.9565C183.958 86.3568 182.879 85.7571 181.799 85.1574H181.919C182.039 85.0375 182.039 84.6777 181.919 84.5577C181.799 84.4378 181.439 84.4378 181.319 84.5577L181.079 84.7976C177.841 82.9985 174.603 81.1994 171.364 79.4003L177.961 72.8036L182.998 67.7661L185.397 69.8051ZM210.825 102.669L210.225 103.868V102.309C210.345 102.429 210.585 102.549 210.825 102.669ZM209.385 101.829V105.307L208.306 107.226V101.229C208.666 101.469 209.025 101.709 209.385 101.829ZM207.466 100.87V106.867C207.106 106.627 206.747 106.507 206.387 106.267V100.27C206.747 100.39 207.106 100.63 207.466 100.87ZM205.547 99.7901V105.787C205.187 105.547 204.828 105.427 204.468 105.187V99.1904C204.828 99.4303 205.187 99.5502 205.547 99.7901ZM203.628 98.7106V104.708C203.268 104.468 202.908 104.348 202.549 104.108V98.1109C202.908 98.3508 203.268 98.5907 203.628 98.7106ZM201.709 97.7511V103.748C201.349 103.508 200.989 103.388 200.63 103.148V97.1514C200.989 97.3913 201.349 97.5112 201.709 97.7511ZM199.91 96.6717V102.669C199.55 102.429 199.19 102.309 198.831 102.069V96.072C199.19 96.3118 199.55 96.5517 199.91 96.6717ZM197.991 95.7122V101.709C197.631 101.469 197.271 101.349 196.912 101.109V95.1124C197.271 95.2324 197.631 95.4723 197.991 95.7122ZM196.072 94.6327V100.63C195.712 100.39 195.352 100.27 194.992 100.03V94.033C195.352 94.2729 195.712 94.3928 196.072 94.6327ZM194.153 99.5502C193.793 99.3103 193.433 99.1904 193.073 98.9505V92.9535C193.433 93.1934 193.793 93.3133 194.153 93.5532V99.5502ZM192.234 92.5937V98.5907C191.874 98.3508 191.514 98.2309 191.154 97.991V91.994C191.514 92.2339 191.874 92.3538 192.234 92.5937ZM190.435 91.8741V97.5112C190.075 97.2714 189.715 97.1514 189.355 96.9115V91.8741C189.595 91.8741 189.835 91.994 190.075 91.994C190.195 91.994 190.315 91.994 190.435 91.8741ZM185.877 87.1964L187.796 85.2774C187.916 85.6372 187.916 85.997 187.916 86.3568L187.796 87.4363C187.796 87.6762 187.796 87.916 187.796 88.1559C187.076 87.916 186.477 87.5562 185.877 87.1964ZM186.597 89.3553V95.3523C186.237 95.1124 185.877 94.9925 185.517 94.7526V88.7556C185.877 88.9955 186.237 89.2354 186.597 89.3553ZM187.436 89.8351C187.556 89.8351 187.676 89.955 187.796 89.955C187.796 90.075 187.796 90.1949 187.796 90.1949C187.916 90.6747 188.156 91.0345 188.396 91.2744C188.396 91.2744 188.516 91.2744 188.516 91.3943V96.4318C188.156 96.1919 187.796 96.072 187.436 95.8321V89.8351ZM184.678 91.1544L183.598 90.075V87.6762C183.958 87.916 184.318 88.036 184.678 88.2759V91.1544ZM184.678 92.2339V94.3928C184.318 94.1529 183.958 94.033 183.598 93.7931V91.2744L184.558 92.2339H184.678ZM181.799 88.2759V86.7166C182.159 86.9565 182.519 87.0765 182.879 87.3163V89.3553L181.799 88.2759ZM182.759 90.4348V93.3133C182.399 93.0735 182.039 92.9535 181.679 92.7136V89.3553L182.759 90.4348ZM180.12 86.5967L180.6 86.1169C180.72 86.2369 180.84 86.2369 180.959 86.3568V87.5562L180.12 86.5967ZM180.959 88.5157V92.2339C180.6 91.994 180.24 91.8741 179.88 91.6342V88.1559L180 88.036V87.5562L180.959 88.5157ZM179.04 87.5562V91.1544C178.681 90.9145 178.321 90.7946 177.961 90.5547V88.7556L179.04 87.5562ZM177.961 87.5562V85.6372L178.921 86.5967L177.961 87.5562ZM179.04 85.5172L178.321 84.7976C178.561 84.9175 178.801 85.0375 179.04 85.2774V85.5172ZM176.042 89.4753V83.7181L177.121 84.7976V88.3958L176.042 89.4753ZM177.121 89.4753V90.075C177.001 89.955 176.882 89.955 176.762 89.8351L177.121 89.4753ZM175.202 83.1184V89.1154C174.843 88.8756 174.483 88.7556 174.123 88.5157V82.5187C174.483 82.6387 174.843 82.8786 175.202 83.1184ZM173.403 82.039V88.036C173.043 87.7961 172.684 87.6762 172.324 87.4363V81.4393C172.684 81.5592 173.043 81.7991 173.403 82.039ZM171.484 80.9595V86.9565C171.124 86.7166 170.765 86.5967 170.405 86.3568V80.3598C170.765 80.4798 171.124 80.7196 171.484 80.9595ZM177.121 50.7346L172.324 55.5322L168.846 52.054L173.643 47.2564L177.121 50.7346ZM170.405 44.018L168.246 46.1769L165.847 43.7781L128.666 6.5967L130.825 4.43778L170.405 44.018ZM165.007 44.018L164.288 44.7376L127.346 7.91604L128.066 7.1964L165.007 44.018ZM128.066 1.67916L130.105 3.83808L128.066 5.997L125.907 3.83808L128.066 1.67916ZM123.388 6.47676L125.547 4.31784L127.706 6.47676L125.547 8.63568L123.388 6.47676ZM140.78 23.988L133.943 17.1514L127.106 10.3148L125.907 9.11544L126.627 8.3958L163.568 45.3373L162.849 46.057L140.78 23.988ZM163.568 46.6567L165.727 44.4977L167.886 46.6567L165.727 48.8156L163.568 46.6567ZM166.207 49.4153L168.606 47.0165L171.004 44.6177L173.043 46.7766L168.246 51.5742L166.207 49.4153ZM163.568 57.4513L168.366 52.6537L171.844 56.1319L167.046 60.9295L163.568 57.4513ZM167.526 61.4093L172.324 56.6117L174.243 58.5307C174.363 58.6507 174.603 58.6507 174.843 58.5307C174.962 58.4108 174.962 58.051 174.843 57.931L172.924 56.012L177.721 51.2144L182.519 56.012L178.321 60.2099C178.201 60.3298 178.201 60.5697 178.321 60.8096C178.441 60.9295 178.801 60.9295 178.921 60.8096L183.118 56.6117L187.916 61.4093L183.118 66.2069L181.679 64.7676C181.559 64.6477 181.199 64.6477 181.079 64.7676C180.96 64.8876 180.96 65.1274 181.079 65.3673L182.519 66.8066L177.721 71.6042L172.684 66.5667L167.526 61.4093ZM164.168 75.5622L171.964 67.7661L172.324 67.4063L177.121 72.2039L165.007 84.1979L158.891 80.7196L164.168 75.5622ZM169.565 80.8396V85.8771C169.205 85.6372 168.846 85.5172 168.486 85.2774V81.919L169.565 80.8396ZM167.646 82.7586V84.7976C167.286 84.5577 166.926 84.4378 166.567 84.1979V83.8381L167.646 82.7586ZM78.0509 32.024L81.6491 26.2669L84.1679 27.8261L80.5697 33.5832C79.7301 32.9835 78.8905 32.5037 78.0509 32.024ZM81.1694 34.063L84.7676 28.3058C108.396 43.1784 132.264 57.5712 156.372 71.4843L153.013 77.3613C128.786 63.3283 104.918 48.9355 81.1694 34.063ZM153.733 77.7211L157.091 71.8441L159.61 73.2834L156.252 79.1604C155.412 78.6807 154.573 78.2009 153.733 77.7211ZM156.971 79.6402L160.33 73.7631L163.208 75.4423L158.291 80.3598C157.811 80.1199 157.451 79.8801 156.971 79.6402ZM147.856 91.7541L158.291 81.3193C159.73 82.1589 161.289 82.9985 162.729 83.8381L164.768 85.0375C168.126 86.9565 171.604 88.8756 175.082 90.7946C175.082 90.7946 175.082 90.7946 175.202 90.7946C185.877 96.7916 196.672 102.789 207.466 108.546L200.75 121.139C183.118 111.664 165.487 101.829 147.856 91.7541ZM201.589 121.619L211.904 102.309L217.781 105.547L207.466 124.738C205.547 123.778 203.628 122.699 201.589 121.619ZM208.186 125.337L214.903 112.744L217.541 114.183L210.825 126.777C209.985 126.177 209.145 125.697 208.186 125.337ZM211.184 127.856C211.904 128.216 212.624 128.576 213.343 129.055L209.985 130.135L211.184 127.856ZM210.345 130.735L214.423 129.535C225.577 135.412 236.732 141.169 248.006 146.927L249.325 151.005L210.345 130.735ZM250.045 150.645L248.965 147.286C249.685 147.646 250.405 148.006 251.124 148.366L250.045 150.645ZM251.604 147.766C250.645 147.286 249.685 146.807 248.726 146.327L242.369 126.777C242.489 126.897 242.729 126.897 242.849 126.777C242.968 126.657 242.968 126.417 242.849 126.177L241.889 125.217L240.81 121.979L259.64 131.694L258.201 134.693L255.922 139.25L249.685 133.013C249.565 132.894 249.205 132.894 249.085 133.013C248.965 133.133 248.965 133.493 249.085 133.613L255.562 139.97L251.604 147.766ZM252.324 148.126L256.162 140.45L258.441 142.729L255.082 149.445C254.123 148.966 253.163 148.606 252.324 148.126ZM255.322 150.525C256.042 150.885 256.762 151.244 257.481 151.604L254.123 152.684L255.322 150.525ZM254.483 153.523L258.561 152.204C264.678 155.202 270.795 158.201 276.792 161.199L283.148 167.436C283.268 167.556 283.508 167.556 283.748 167.436C283.868 167.316 283.868 166.957 283.748 166.837L279.07 162.159C283.868 164.558 288.786 166.837 293.583 169.115L295.142 173.193L254.483 153.523ZM295.982 173.073L294.783 169.835C295.502 170.195 296.222 170.555 296.942 170.795L295.982 173.073ZM297.181 170.075C296.222 169.595 295.262 169.235 294.303 168.756L285.067 144.048L304.258 153.403L297.181 170.075ZM297.901 170.435L303.418 157.241L306.177 158.441L300.66 171.754C299.7 171.274 298.861 170.795 297.901 170.435ZM301.019 172.834C301.739 173.193 302.339 173.433 303.058 173.793L300.06 174.992L301.019 172.834ZM310.735 180.51L300.42 175.712L304.138 174.273C307.017 175.592 310.015 177.031 312.893 178.351L310.735 180.51ZM311.574 180.87L313.733 178.711C321.769 182.429 329.805 186.147 337.841 189.745L339.28 193.703L311.574 180.87ZM340 193.343L338.801 190.225C339.52 190.585 340.24 190.825 340.959 191.184L340 193.343ZM341.319 190.465C340.36 189.985 339.4 189.625 338.441 189.145L329.445 164.918L348.636 173.793L341.319 190.465ZM344.797 192.024C343.838 191.544 342.998 191.184 342.039 190.825L347.916 177.751L350.675 178.951L344.797 192.024ZM345.637 192.384L351.394 179.07C351.514 179.07 351.634 178.951 351.634 178.831L354.393 172.234L357.991 173.793C358.83 174.153 359.79 174.633 360.63 174.992L357.991 180.87L351.634 195.022L345.637 192.384ZM360.869 176.432V181.709C360.51 181.589 360.15 181.349 359.79 181.229V178.831L360.869 176.432ZM359.07 180.63V180.87C359.07 180.87 359.07 180.87 358.95 180.87L359.07 180.63ZM353.313 194.903C353.073 194.783 352.954 194.783 352.714 194.663L353.313 193.343V194.903ZM355.232 195.742C354.873 195.622 354.513 195.382 354.153 195.262V191.544L354.872 189.865C354.992 189.865 355.112 189.985 355.232 189.985V195.742ZM357.151 196.582C356.792 196.462 356.432 196.222 356.072 196.102V190.345C356.432 190.465 356.792 190.705 357.151 190.825V196.582ZM359.19 198.381C358.711 198.141 358.231 197.901 357.751 197.781C358.111 197.901 358.591 198.141 359.19 198.381C359.19 198.261 359.19 198.261 359.19 198.381ZM357.991 196.942V191.184C358.351 191.304 358.711 191.544 359.07 191.664V197.421C358.711 197.181 358.351 197.061 357.991 196.942ZM360.989 199.1C360.51 198.861 359.91 198.621 359.43 198.381C360.03 198.741 360.51 198.861 360.989 199.1ZM359.79 197.781V192.024C360.15 192.144 360.51 192.384 360.869 192.504V198.141C360.51 198.021 360.15 197.901 359.79 197.781ZM361.349 199.34C361.349 199.34 361.349 199.22 361.349 199.34C361.949 199.58 362.429 199.82 362.909 199.94C362.429 199.82 361.829 199.58 361.349 199.34ZM361.709 192.864C362.069 192.984 362.429 193.223 362.788 193.343V198.98C362.429 198.861 362.069 198.621 361.709 198.501V192.864ZM363.148 200.06C363.148 200.06 363.148 200.18 363.148 200.06C363.268 200.18 363.268 200.06 363.148 200.06C363.748 200.3 364.228 200.54 364.828 200.78C364.228 200.54 363.748 200.3 363.148 200.06ZM363.628 193.703C363.988 193.823 364.348 193.943 364.708 194.183V199.82C364.348 199.7 363.988 199.46 363.628 199.34V193.703ZM365.187 200.9C365.787 201.139 366.267 201.379 366.747 201.499C366.147 201.379 365.667 201.139 365.187 200.9ZM365.547 200.18V194.543C365.907 194.663 366.267 194.903 366.627 195.022V200.66C366.267 200.54 365.907 200.3 365.547 200.18ZM366.986 201.739C367.586 201.979 368.066 202.219 368.546 202.459C368.066 202.219 367.586 201.979 366.986 201.739ZM367.466 201.02V195.382C367.826 195.502 368.186 195.742 368.546 195.862V201.499C368.186 201.379 367.826 201.139 367.466 201.02ZM368.906 202.579C369.505 202.819 369.985 203.058 370.465 203.178C369.985 203.058 369.505 202.819 368.906 202.579ZM369.265 201.859V196.222C369.625 196.342 369.985 196.582 370.345 196.702V202.339C369.985 202.099 369.625 201.979 369.265 201.859ZM372.384 204.018C371.904 203.778 371.304 203.538 370.825 203.298C371.304 203.538 371.904 203.778 372.384 204.018ZM371.184 202.579V196.942C371.544 197.061 371.904 197.301 372.264 197.421V203.058C371.904 202.939 371.544 202.819 371.184 202.579ZM372.744 204.138C372.983 204.258 373.223 204.378 373.583 204.498C373.223 204.378 372.983 204.258 372.744 204.138ZM373.103 203.418V197.781C373.463 197.901 373.823 198.141 374.183 198.261V203.898C373.823 203.778 373.463 203.658 373.103 203.418ZM374.663 204.978C375.022 205.097 375.382 205.217 375.742 205.457C375.262 205.337 374.902 205.097 374.663 204.978ZM376.102 204.738C375.742 204.618 375.382 204.498 375.022 204.258V198.621C375.382 198.741 375.742 198.981 376.102 199.1V204.738ZM378.021 205.577C377.661 205.457 377.301 205.217 376.941 205.097V199.46C377.301 199.58 377.661 199.82 378.021 199.94V205.577ZM379.82 206.417C379.46 206.297 379.1 206.177 378.741 205.937V200.18C379.1 200.3 379.46 200.54 379.82 200.66V206.417ZM380.66 206.777V201.02C381.019 201.139 381.379 201.379 381.739 201.499V207.256C381.379 207.016 381.019 206.897 380.66 206.777ZM383.658 207.976C383.298 207.856 382.938 207.616 382.579 207.496V201.739C382.938 201.859 383.298 202.099 383.658 202.219V207.976ZM385.577 208.816C385.217 208.696 384.858 208.456 384.498 208.336V202.579C384.858 202.699 385.217 202.939 385.577 203.058V208.816ZM387.496 209.535C387.136 209.415 386.777 209.295 386.417 209.055V203.298C386.777 203.418 387.136 203.658 387.496 203.778V209.535ZM389.295 210.375C388.936 210.255 388.576 210.135 388.216 209.895V204.258C388.576 204.378 388.936 204.498 389.295 204.738V210.375ZM391.214 211.094C390.855 210.975 390.495 210.735 390.135 210.615V204.978C390.495 205.097 390.855 205.337 391.214 205.457V211.094ZM393.133 211.934C392.774 211.814 392.414 211.694 392.054 211.454V205.817C392.414 205.937 392.774 206.177 393.133 206.297V211.934ZM395.172 213.613C394.693 213.373 394.213 213.253 393.733 213.014C394.213 213.253 394.693 213.373 395.172 213.613ZM393.973 212.294V206.657C394.333 206.777 394.693 207.016 395.052 207.136V212.774C394.693 212.534 394.333 212.414 393.973 212.294ZM396.971 214.453C396.492 214.213 395.892 213.973 395.412 213.853C396.012 213.973 396.492 214.213 396.971 214.453ZM395.892 213.014V207.376C396.252 207.496 396.612 207.616 396.971 207.856V213.493C396.612 213.373 396.252 213.133 395.892 213.014ZM398.891 215.172C398.411 214.933 397.811 214.693 397.331 214.573C397.931 214.813 398.411 214.933 398.891 215.172ZM397.691 213.853V208.216C398.051 208.336 398.411 208.456 398.771 208.696V214.333C398.411 214.093 398.051 213.973 397.691 213.853ZM400.81 216.012C400.33 215.772 399.73 215.532 399.25 215.412C399.73 215.532 400.33 215.772 400.81 216.012ZM399.61 214.573V208.936C399.97 209.055 400.33 209.175 400.69 209.415V215.052C400.33 214.933 399.97 214.693 399.61 214.573ZM401.169 216.132C401.649 216.372 402.129 216.492 402.729 216.732C402.129 216.492 401.649 216.372 401.169 216.132ZM401.529 215.412V209.775C401.889 209.895 402.249 210.015 402.609 210.255V215.892C402.249 215.652 401.889 215.532 401.529 215.412ZM404.528 216.612C404.168 216.492 403.808 216.372 403.448 216.132V210.495C403.808 210.615 404.168 210.735 404.528 210.975V216.612ZM406.447 217.451C406.087 217.331 405.727 217.091 405.367 216.972V211.334C405.727 211.454 406.087 211.574 406.447 211.814V217.451ZM408.246 218.171C407.886 218.051 407.526 217.811 407.166 217.691V212.054C407.526 212.174 407.886 212.294 408.246 212.534V218.171ZM410.165 219.01C409.805 218.891 409.445 218.651 409.085 218.531V212.894C409.445 213.013 409.805 213.253 410.165 213.373V219.01ZM412.084 219.73C411.724 219.61 411.364 219.49 411.004 219.25V213.613C411.364 213.733 411.724 213.853 412.084 214.093V219.73ZM414.003 220.57C413.643 220.45 413.283 220.21 412.923 220.09V214.453C413.283 214.573 413.643 214.813 414.003 214.933V220.57ZM415.922 221.289C415.562 221.169 415.202 221.049 414.842 220.81V215.172C415.202 215.292 415.562 215.412 415.922 215.652V221.289ZM417.721 222.009C417.361 221.889 417.001 221.769 416.642 221.529V215.892C417.001 216.012 417.361 216.132 417.721 216.372V222.009ZM419.64 222.849C419.28 222.729 418.92 222.609 418.561 222.369V216.732C418.92 216.852 419.28 216.972 419.64 217.211V222.849ZM421.559 223.568C421.199 223.448 420.84 223.208 420.48 223.088V217.451C420.84 217.571 421.199 217.811 421.559 217.931V223.568ZM423.478 224.288C423.118 224.168 422.759 224.048 422.399 223.808V218.171C422.759 218.291 423.118 218.411 423.478 218.651V224.288ZM425.397 225.008C425.037 224.888 424.678 224.768 424.318 224.648V219.01C424.678 219.13 425.037 219.25 425.397 219.49V225.008ZM427.196 225.727C426.837 225.607 426.477 225.487 426.117 225.247V219.61C426.477 219.73 426.837 219.85 427.196 220.09V225.727ZM429.115 226.567C428.756 226.447 428.396 226.327 428.036 226.087V220.45C428.396 220.57 428.756 220.69 429.115 220.93V226.567ZM431.034 227.286C430.675 227.166 430.315 227.046 429.955 226.807V221.169C430.315 221.289 430.675 221.529 431.034 221.649V227.286ZM433.073 228.966C432.834 228.846 432.594 228.726 432.354 228.606C432.474 228.726 432.714 228.846 433.073 228.966ZM431.874 227.526V221.889C432.234 222.009 432.594 222.129 432.953 222.369V228.006C432.594 227.886 432.234 227.766 431.874 227.526ZM433.433 229.085C433.913 229.205 434.513 229.445 434.992 229.685C434.393 229.445 433.913 229.325 433.433 229.085ZM433.793 228.366V222.729C434.153 222.849 434.513 222.969 434.873 223.208V228.846C434.513 228.606 434.033 228.486 433.793 228.366ZM355.592 188.426L358.351 182.189C384.738 193.823 411.724 205.097 438.591 215.652L439.79 216.852L435.112 221.529C408.366 211.094 381.619 199.94 355.592 188.426ZM436.672 229.445C436.312 229.325 435.952 229.205 435.592 228.966V223.328L436.672 224.408V229.445ZM438.591 230.285C438.471 230.285 438.351 230.165 438.231 230.165L438.591 229.925V230.285ZM438.591 228.726L437.511 229.805V225.367L438.591 226.447V228.726ZM440.51 231.005C440.15 230.885 439.79 230.765 439.43 230.525V228.966L440.27 228.126L440.51 228.366V231.005ZM439.43 227.886V227.286L439.67 227.526L439.43 227.886ZM442.429 231.724C442.069 231.604 441.709 231.364 441.349 231.244V229.085L442.429 230.165V231.724ZM444.228 232.444C443.868 232.324 443.508 232.204 443.148 231.964V231.005L444.228 232.084V232.444ZM440.87 227.526C440.99 227.406 440.99 227.166 440.87 227.046C440.75 226.927 440.51 226.927 440.39 227.046L435.592 222.249L440.39 217.451L442.789 219.85L445.787 222.849C445.907 222.969 446.147 222.969 446.387 222.849C446.507 222.729 446.507 222.489 446.387 222.249L443.388 219.25L440.989 216.852L445.787 212.054L450.585 216.852L447.226 220.21C447.106 220.33 447.106 220.69 447.226 220.81C447.346 220.93 447.586 220.93 447.826 220.81L451.184 217.451L451.424 217.691L455.742 222.009L455.982 222.249L445.787 232.444L440.87 227.526ZM446.147 233.283C446.027 233.283 446.027 233.283 445.907 233.163L446.147 232.924V233.283ZM446.986 233.523V232.084L448.066 231.005V233.883C447.706 233.883 447.346 233.643 446.986 233.523ZM449.985 234.723C449.625 234.603 449.265 234.483 448.905 234.363V230.285L449.985 229.205V234.723ZM451.904 235.442C451.544 235.322 451.184 235.202 450.824 235.082V229.445C451.184 229.565 451.544 229.685 451.904 229.805V235.442ZM453.703 236.162C453.343 236.042 452.983 235.922 452.624 235.682V230.045C452.744 230.165 452.863 230.165 453.103 230.165L453.343 230.405L453.703 230.765V236.162ZM455.622 236.882C455.262 236.762 454.902 236.642 454.543 236.522V231.844L455.622 232.924V236.882ZM455.622 231.604L454.902 230.885C455.142 231.005 455.382 231.005 455.622 231.124V231.604ZM456.462 237.121V233.643L457.541 234.723V237.601C457.181 237.361 456.822 237.241 456.462 237.121ZM456.462 232.444V231.484C456.822 231.604 457.181 231.724 457.541 231.844V233.403L456.462 232.444ZM458.381 237.841V235.562L459.22 236.522L459.46 236.642V238.321C459.1 238.081 458.741 237.961 458.381 237.841ZM459.46 235.442L458.381 234.363V232.204C458.741 232.324 459.1 232.444 459.46 232.564V235.442ZM461.379 238.921C461.019 238.801 460.66 238.681 460.3 238.561V237.481L461.379 238.561V238.921ZM461.379 237.361L460.3 236.282V233.043C460.66 233.163 461.019 233.283 461.379 233.403V237.361ZM463.178 239.28L462.099 238.201V233.763C462.459 233.883 462.819 234.003 463.178 234.123V239.28ZM465.097 240.36C464.738 240.24 464.378 240.12 464.018 240V234.483C464.378 234.603 464.738 234.723 465.097 234.843V240.36ZM467.016 241.079C466.657 240.96 466.297 240.84 465.937 240.72V235.082C466.297 235.202 466.657 235.322 467.016 235.442V241.079ZM468.935 241.799C468.576 241.679 468.216 241.559 467.856 241.319V235.802C468.216 235.922 468.576 236.042 468.935 236.162V241.799ZM470.855 242.519C470.495 242.399 470.135 242.279 469.775 242.039V236.522C470.135 236.642 470.495 236.762 470.855 236.882V242.519ZM471.574 242.759V237.241C471.934 237.361 472.294 237.481 472.654 237.601V243.238C472.294 243.118 471.934 242.998 471.574 242.759ZM474.573 243.958C474.213 243.838 473.853 243.718 473.493 243.598V238.081C473.853 238.201 474.213 238.321 474.573 238.441V243.958ZM476.492 244.678C476.132 244.558 475.772 244.438 475.412 244.318V238.681C475.772 238.801 476.132 238.921 476.492 239.04V244.678ZM478.411 245.397C478.051 245.277 477.691 245.157 477.331 245.037V239.4C477.691 239.52 478.051 239.64 478.411 239.76V245.397ZM451.304 227.886L456.582 222.609C465.577 226.087 474.812 229.445 483.808 232.804L481.529 239.16C471.454 235.562 461.379 231.724 451.304 227.886ZM479.25 240.12C479.61 240.24 479.97 240.36 480.33 240.48V242.399L479.25 245.397V240.12ZM485.967 226.447V226.687L484.887 229.685V226.087C485.247 226.087 485.607 226.327 485.967 226.447ZM484.648 232.684L484.887 231.964L487.046 225.967L493.403 228.246L485.967 248.876L483.568 247.916C482.249 247.436 480.929 246.957 479.61 246.477L479.73 246.117L482.009 239.76L484.648 232.684C484.648 232.804 484.648 232.804 484.648 232.684ZM482.968 225.367C483.328 225.487 483.688 225.607 484.048 225.727V231.364C483.688 231.244 483.328 231.124 482.968 230.885V225.367ZM482.129 225.008V230.645C481.769 230.525 481.409 230.405 481.049 230.285V224.648C481.409 224.768 481.769 224.888 482.129 225.008ZM480.33 224.288V229.925C479.97 229.805 479.61 229.685 479.25 229.565V223.928C479.61 224.048 479.97 224.168 480.33 224.288ZM477.331 223.208C477.691 223.328 478.051 223.448 478.411 223.568V229.205C478.051 229.085 477.691 228.966 477.331 228.846V223.208ZM475.412 222.489C475.772 222.609 476.132 222.729 476.492 222.849V228.486C476.132 228.366 475.772 228.246 475.412 228.126V222.489ZM473.493 221.769C473.853 221.889 474.213 222.009 474.573 222.129V227.766C474.213 227.646 473.853 227.526 473.493 227.406V221.769ZM471.574 221.049C471.934 221.169 472.294 221.289 472.654 221.409V227.046C472.294 226.927 471.934 226.807 471.574 226.687V221.049ZM469.775 220.33C470.135 220.45 470.495 220.57 470.855 220.81V226.447C470.495 226.327 470.135 226.207 469.775 226.087V220.33ZM467.856 219.61C468.216 219.73 468.576 219.85 468.935 220.09V225.607C468.576 225.487 468.216 225.367 467.856 225.247V219.61ZM465.937 218.891C466.297 219.01 466.657 219.13 467.016 219.25V224.888C466.657 224.768 466.297 224.648 465.937 224.528V218.891ZM464.018 218.291C464.378 218.411 464.738 218.531 465.097 218.651V224.288C464.738 224.168 464.378 224.048 464.018 223.808V218.291ZM463.178 217.931V223.568C462.819 223.448 462.459 223.328 462.099 223.208V217.571C462.459 217.691 462.819 217.811 463.178 217.931ZM463.778 213.133L462.699 214.213V206.777L463.778 205.697V213.133ZM465.697 211.214L464.618 212.294V204.858L465.697 203.778V211.214ZM467.616 209.295L466.537 210.375V202.939L467.376 202.099L467.496 202.219V209.295H467.616ZM469.535 207.376L468.456 208.456V203.058L469.535 204.138V207.376ZM468.456 201.979V201.139L469.535 200.06V203.058L468.456 201.979ZM470.255 206.657V204.978L471.094 205.817L470.255 206.657ZM470.255 203.778V199.1L471.334 198.021V204.858L470.255 203.778ZM473.253 203.658L472.174 204.738V197.301L473.253 196.222V203.658ZM475.172 201.739L474.093 202.819V195.382L475.172 194.303V201.739ZM477.091 199.82L476.012 200.9V193.463L477.091 192.384V199.82ZM479.01 198.021L477.931 199.1V191.664L479.01 190.585V198.021ZM480.81 196.102L479.73 197.181V189.745L480.81 188.666V196.102ZM482.729 194.183L481.649 195.262V187.826L482.729 186.747V194.183ZM484.648 192.264L483.568 193.343V185.907L484.648 184.828V192.264ZM486.567 190.345L485.487 191.424V183.988L486.567 182.909V190.345ZM487.406 189.625V182.189L488.486 181.109V188.546L487.406 189.625ZM490.285 186.627L489.205 187.706V180.27L490.285 179.19V186.627ZM492.204 184.708L491.124 185.787V179.91L492.204 180.99V184.708ZM493.043 183.868V181.709L494.123 182.789L493.043 183.868ZM500 177.991L495.202 182.789L494.962 182.549L490.645 178.231L490.405 177.991L495.202 173.193L500 177.991Z" fill="white"/>
</svg>
